#N canvas 61 69 1024 695 10;
#X obj 143 230 rfft~;
#X obj 143 405 *~;
#X obj 177 405 *~;
#X obj 143 190 *~;
#X obj 143 145 inlet~;
#X obj 224 254 /~ 768;
#X obj 224 206 *~;
#X obj 224 230 *~;
#X obj 143 444 rifft~;
#X obj 143 482 *~;
#X obj 143 547 outlet~;
#X obj 194 154 tabreceive~ hanning;
#X obj 194 444 tabreceive~ hanning;
#X obj 224 182 tabreceive~ formant;
#X obj 161 40 block~ 512 4;
#X obj 360 176 *~;
#X obj 361 207 rfft~;
#X obj 352 238 *~;
#X obj 384 238 *~;
#X obj 361 269 +~;
#X obj 360 300 sqrt~;
#X obj 389 145 tabreceive~ hanning;
#X obj 361 124 fexpr~ $x1-$x1[-1] \;;
#X obj 361 67 inlet~;
#X obj 359 356 *~;
#X obj 284 232 r voc;
#X obj 223 335 *~;
#X obj 284 261 tgl 15 0 empty empty empty 17 7 0 10 -262144 -1 -1 0
1;
#X obj 238 292 * -1;
#X obj 238 313 + 1;
#X obj 360 321 /~ 512;
#X obj 284 281 * 1;
#X obj 412 497 tabwrite~ formant;
#X obj 412 288 bng 15 250 50 0 empty empty empty 17 7 0 10 -262144
-1 -1;
#X obj 396 376 hip~ 20;
#X obj 413 465 clip~ 0 1;
#X obj 401 428 +~ 0.25;
#X obj 412 265 r cap;
#X msg 420 327 0;
#X obj 420 347 s *voc;
#X obj 401 407 *~ 10;
#X obj 434 72 r k-aux;
#X obj 361 88 *~;
#X connect 0 0 1 0;
#X connect 0 1 2 0;
#X connect 1 0 8 0;
#X connect 2 0 8 1;
#X connect 3 0 0 0;
#X connect 4 0 3 0;
#X connect 5 0 26 0;
#X connect 6 0 7 0;
#X connect 6 0 7 1;
#X connect 7 0 5 0;
#X connect 8 0 9 0;
#X connect 9 0 10 0;
#X connect 11 0 3 1;
#X connect 12 0 9 1;
#X connect 13 0 6 0;
#X connect 13 0 6 1;
#X connect 15 0 16 0;
#X connect 16 0 17 1;
#X connect 16 0 17 0;
#X connect 16 1 18 1;
#X connect 16 1 18 0;
#X connect 17 0 19 0;
#X connect 18 0 19 1;
#X connect 19 0 20 0;
#X connect 20 0 30 0;
#X connect 20 0 34 0;
#X connect 21 0 15 1;
#X connect 22 0 15 0;
#X connect 23 0 42 0;
#X connect 24 0 2 1;
#X connect 24 0 1 1;
#X connect 25 0 27 0;
#X connect 26 0 2 1;
#X connect 26 0 1 1;
#X connect 27 0 28 0;
#X connect 27 0 31 0;
#X connect 28 0 29 0;
#X connect 29 0 26 1;
#X connect 30 0 24 0;
#X connect 31 0 24 1;
#X connect 33 0 32 0;
#X connect 33 0 38 0;
#X connect 34 0 40 0;
#X connect 35 0 32 0;
#X connect 36 0 35 0;
#X connect 37 0 33 0;
#X connect 38 0 39 0;
#X connect 40 0 36 0;
#X connect 41 0 42 1;
#X connect 42 0 22 0;
