#N canvas 0 50 450 300 10;
#X obj 143 230 rfft~;
#X obj 143 384 *~;
#X obj 175 384 *~;
#X obj 143 190 *~;
#X obj 143 145 inlet~;
#X obj 237 306 /~ 768;
#X obj 237 258 *~;
#X obj 237 282 *~;
#X obj 143 418 rifft~;
#X obj 143 482 *~;
#X obj 143 547 outlet~;
#X obj 194 154 tabreceive~ hanning;
#X obj 194 444 tabreceive~ hanning;
#X obj 237 234 tabreceive~ formant;
#X obj 161 40 block~ 512 4;
#X connect 0 0 1 0;
#X connect 0 1 2 0;
#X connect 1 0 8 0;
#X connect 2 0 8 1;
#X connect 3 0 0 0;
#X connect 4 0 3 0;
#X connect 5 0 2 1;
#X connect 5 0 1 1;
#X connect 6 0 7 0;
#X connect 6 0 7 1;
#X connect 7 0 5 0;
#X connect 8 0 9 0;
#X connect 9 0 10 0;
#X connect 11 0 3 1;
#X connect 12 0 9 1;
#X connect 13 0 6 0;
#X connect 13 0 6 1;
