#N canvas -17 85 941 729 10;
#X obj 182 188 noise~;
#N canvas -8 -8 1024 695 env 0;
#X obj 143 67 inlet;
#X msg 142 325 0 57.5;
#X msg 174 217 set 1 \$1 \,;
#X text 242 38 attack time;
#X msg 384 225 set 0 \$1 \,;
#X text 232 78 release time;
#X obj 340 41 hsl 128 15 0 1 0 0 empty k-a empty -2 -8 0 10 -262144
-1 -1 0 1;
#X obj 337 74 hsl 128 15 0 1 0 0 empty k-r empty -2 -8 0 10 -262144
-1 -1 730 1;
#X obj 143 94 tgl 15 0 empty empty empty 17 7 0 10 -262144 -1 -1 0
1;
#X obj 143 114 select 1;
#X obj 122 359 bng 15 250 50 0 empty empty empty 17 7 0 10 -262144
-1 -1;
#X obj 142 145 t b b;
#X obj 352 133 t b b;
#X obj 174 170 * 1000;
#X obj 142 357 vline~;
#X obj 142 381 outlet~;
#X floatatom 174 194 5 0 0 0 - - -, f 5;
#X floatatom 384 203 5 0 0 0 - - -, f 5;
#X obj 561 160 log;
#X floatatom 561 181 5 0 0 0 - - -, f 5;
#X floatatom 559 136 5 0 0 0 - - -, f 5;
#X obj 384 159 * 1000;
#X connect 0 0 8 0;
#X connect 1 0 10 0;
#X connect 1 0 14 0;
#X connect 2 0 1 0;
#X connect 4 0 1 0;
#X connect 6 0 13 0;
#X connect 7 0 21 0;
#X connect 8 0 9 0;
#X connect 9 0 11 0;
#X connect 9 1 12 0;
#X connect 11 0 1 0;
#X connect 11 1 13 0;
#X connect 12 0 1 0;
#X connect 12 1 21 0;
#X connect 13 0 16 0;
#X connect 14 0 15 0;
#X connect 16 0 2 0;
#X connect 17 0 4 0;
#X connect 18 0 19 0;
#X connect 20 0 18 0;
#X connect 21 0 17 0;
#X restore 374 387 pd env;
#X obj 374 365 tgl 15 0 empty empty empty 17 7 0 10 -262144 -1 -1 0
1;
#X obj 237 447 *~;
#X floatatom 487 133 5 0 0 0 - - -, f 5;
#X obj 487 156 mtof;
#X obj 487 245 expr 1000 / $f1;
#X floatatom 487 269 5 0 0 0 - - -, f 5;
#X obj 487 427 lop~ 5000;
#X floatatom 533 343 5 0 0.99 0 - - -, f 5;
#X floatatom 601 267 5 0 0 0 - - -, f 5;
#X obj 547 367 * 20000;
#X obj 535 80 r k-res;
#X obj 481 525 outlet~;
#X obj 601 80 r k-damp;
#X obj 337 300 *~ 1;
#X obj 219 302 *~ 1;
#X floatatom 223 100 5 0 1 0 - - -, f 5;
#X obj 223 78 r k-noise;
#X obj 337 236 *~ 1;
#X obj 302 150 + 1;
#X obj 302 126 * -1;
#X floatatom 292 102 5 0 127 0 - - -, f 5;
#X obj 268 259 *~ 1;
#X obj 336 189 osc~;
#X obj 267 189 phasor~;
#X obj 533 322 expr 0.89 + (.1 * $f1) \;;
#X obj 183 212 lop~ 20000;
#X obj 487 108 unpack f f f;
#X obj 527 135 > 0;
#X obj 487 79 inlet;
#X obj 137 211 *~ 1;
#X floatatom 162 102 5 0 1 0 - - -, f 5;
#X obj 162 78 r k-aux;
#X obj 362 78 r k-wave;
#X obj 292 78 r k-shape;
#X floatatom 362 102 5 0 0 0 - - -, f 5;
#X obj 257 303 r n-a;
#X obj 374 301 r w-a;
#X obj 176 302 r a-a;
#X text 58 73 ctl;
#X text 57 187 src;
#X text 48 305 attn, f 5;
#X text 247 16 excite;
#X text 525 22 resonate;
#X obj 136 152 adc~;
#X obj 237 592 delwrite~ \$0-kdel 500;
#X obj 487 292 delread4~ \$0-kdel;
#X obj 487 469 *~ 1;
#X obj 487 366 *~ 1;
#X obj 138 340 *~ 1;
#X obj 219 341 *~ 1;
#X obj 601 245 expr 1-$f1 \;;
#X obj 547 388 + 100;
#X obj 336 213 *~ 0.25;
#X obj 267 210 *~ 0.5;
#X obj 267 236 -~ 0.5;
#X obj 337 341 *~ 0.5;
#X obj 153 246 r voc;
#X obj 153 281 < 1;
#X obj 138 306 *~;
#X connect 0 0 27 0;
#X connect 1 0 3 1;
#X connect 2 0 1 0;
#X connect 3 0 46 0;
#X connect 4 0 5 0;
#X connect 5 0 6 0;
#X connect 5 0 24 0;
#X connect 5 0 25 0;
#X connect 6 0 7 0;
#X connect 7 0 47 0;
#X connect 8 0 46 0;
#X connect 8 0 48 0;
#X connect 9 0 49 1;
#X connect 10 0 11 0;
#X connect 11 0 53 0;
#X connect 12 0 26 0;
#X connect 14 0 52 0;
#X connect 15 0 57 0;
#X connect 16 0 51 0;
#X connect 17 0 16 1;
#X connect 18 0 17 0;
#X connect 19 0 15 0;
#X connect 20 0 19 1;
#X connect 21 0 20 0;
#X connect 22 0 21 0;
#X connect 22 0 23 1;
#X connect 23 0 15 0;
#X connect 24 0 54 0;
#X connect 25 0 55 0;
#X connect 26 0 9 0;
#X connect 27 0 16 0;
#X connect 28 0 4 0;
#X connect 28 1 29 0;
#X connect 29 0 2 0;
#X connect 30 0 28 0;
#X connect 31 0 60 0;
#X connect 32 0 31 1;
#X connect 33 0 32 0;
#X connect 34 0 36 0;
#X connect 35 0 22 0;
#X connect 36 0 15 1;
#X connect 37 0 51 1;
#X connect 38 0 57 1;
#X connect 39 0 50 1;
#X connect 45 0 31 0;
#X connect 45 1 31 0;
#X connect 47 0 49 0;
#X connect 48 0 13 0;
#X connect 49 0 8 0;
#X connect 50 0 3 0;
#X connect 51 0 3 0;
#X connect 52 0 10 0;
#X connect 53 0 8 1;
#X connect 54 0 19 0;
#X connect 55 0 56 0;
#X connect 56 0 23 0;
#X connect 57 0 3 0;
#X connect 58 0 59 0;
#X connect 59 0 60 1;
#X connect 60 0 50 0;
